<mxfile host="65bd71144e">
    <diagram id="C5RBs43oDa-KdzZeNtuy" name="Page-1">
        <mxGraphModel dx="1074" dy="500" grid="1" gridSize="10" guides="1" tooltips="1" connect="1" arrows="1" fold="1" page="1" pageScale="1" pageWidth="827" pageHeight="1169" math="0" shadow="0">
            <root>
                <mxCell id="WIyWlLk6GJQsqaUBKTNV-0"/>
                <mxCell id="WIyWlLk6GJQsqaUBKTNV-1" parent="WIyWlLk6GJQsqaUBKTNV-0"/>
                <mxCell id="WIyWlLk6GJQsqaUBKTNV-2" value="" style="rounded=0;html=1;jettySize=auto;orthogonalLoop=1;fontSize=11;endArrow=block;endFill=0;endSize=8;strokeWidth=1;shadow=0;labelBackgroundColor=none;edgeStyle=orthogonalEdgeStyle;fillColor=#ffe6cc;strokeColor=#d79b00;fontColor=#000000;" parent="WIyWlLk6GJQsqaUBKTNV-1" source="WIyWlLk6GJQsqaUBKTNV-3" edge="1">
                    <mxGeometry relative="1" as="geometry">
                        <mxPoint x="390" y="170" as="targetPoint"/>
                    </mxGeometry>
                </mxCell>
                <mxCell id="WIyWlLk6GJQsqaUBKTNV-3" value="&lt;div&gt;Retreive Uploaded Code From Server&lt;/div&gt;" style="rounded=1;whiteSpace=wrap;html=1;fontSize=12;glass=0;strokeWidth=1;shadow=0;fillColor=#ffe6cc;strokeColor=#d79b00;fontColor=#000000;" parent="WIyWlLk6GJQsqaUBKTNV-1" vertex="1">
                    <mxGeometry x="330" y="80" width="120" height="40" as="geometry"/>
                </mxCell>
                <mxCell id="Vd5r9ZvnlhtOwNtqajtM-12" value="&lt;div&gt;Generate Hash&lt;/div&gt;" style="rounded=1;whiteSpace=wrap;html=1;fontSize=12;glass=0;strokeWidth=1;shadow=0;fillColor=#ffe6cc;strokeColor=#d79b00;fontColor=#000000;" parent="WIyWlLk6GJQsqaUBKTNV-1" vertex="1">
                    <mxGeometry x="330" y="170" width="120" height="40" as="geometry"/>
                </mxCell>
                <mxCell id="Vd5r9ZvnlhtOwNtqajtM-17" value="" style="rounded=0;html=1;jettySize=auto;orthogonalLoop=1;fontSize=11;endArrow=block;endFill=0;endSize=8;strokeWidth=1;shadow=0;labelBackgroundColor=none;edgeStyle=orthogonalEdgeStyle;exitX=0.5;exitY=1;exitDx=0;exitDy=0;fillColor=#ffe6cc;strokeColor=#d79b00;fontColor=#000000;" parent="WIyWlLk6GJQsqaUBKTNV-1" source="Vd5r9ZvnlhtOwNtqajtM-12" edge="1">
                    <mxGeometry relative="1" as="geometry">
                        <mxPoint x="400" y="130" as="sourcePoint"/>
                        <mxPoint x="390" y="260" as="targetPoint"/>
                    </mxGeometry>
                </mxCell>
                <mxCell id="Vd5r9ZvnlhtOwNtqajtM-18" value="&lt;div&gt;Retrieve Device Code&lt;/div&gt;" style="rounded=1;whiteSpace=wrap;html=1;fontSize=12;glass=0;strokeWidth=1;shadow=0;fillColor=#ffe6cc;strokeColor=#d79b00;fontColor=#000000;" parent="WIyWlLk6GJQsqaUBKTNV-1" vertex="1">
                    <mxGeometry x="330" y="260" width="120" height="40" as="geometry"/>
                </mxCell>
                <mxCell id="Vd5r9ZvnlhtOwNtqajtM-19" value="" style="rounded=0;html=1;jettySize=auto;orthogonalLoop=1;fontSize=11;endArrow=block;endFill=0;endSize=8;strokeWidth=1;shadow=0;labelBackgroundColor=none;edgeStyle=orthogonalEdgeStyle;exitX=0.5;exitY=1;exitDx=0;exitDy=0;fillColor=#ffe6cc;strokeColor=#d79b00;fontColor=#000000;" parent="WIyWlLk6GJQsqaUBKTNV-1" source="Vd5r9ZvnlhtOwNtqajtM-18" edge="1">
                    <mxGeometry relative="1" as="geometry">
                        <mxPoint x="400" y="130" as="sourcePoint"/>
                        <mxPoint x="390" y="350" as="targetPoint"/>
                    </mxGeometry>
                </mxCell>
                <mxCell id="Vd5r9ZvnlhtOwNtqajtM-20" value="Generate Device Code Hash" style="rounded=1;whiteSpace=wrap;html=1;fontSize=12;glass=0;strokeWidth=1;shadow=0;fillColor=#ffe6cc;strokeColor=#d79b00;fontColor=#000000;" parent="WIyWlLk6GJQsqaUBKTNV-1" vertex="1">
                    <mxGeometry x="330" y="350" width="120" height="40" as="geometry"/>
                </mxCell>
                <mxCell id="Vd5r9ZvnlhtOwNtqajtM-21" value="" style="rounded=0;html=1;jettySize=auto;orthogonalLoop=1;fontSize=11;endArrow=block;endFill=0;endSize=8;strokeWidth=1;shadow=0;labelBackgroundColor=none;edgeStyle=orthogonalEdgeStyle;exitX=0.5;exitY=1;exitDx=0;exitDy=0;fillColor=#ffe6cc;strokeColor=#d79b00;fontColor=#000000;" parent="WIyWlLk6GJQsqaUBKTNV-1" source="Vd5r9ZvnlhtOwNtqajtM-20" edge="1">
                    <mxGeometry relative="1" as="geometry">
                        <mxPoint x="400" y="310" as="sourcePoint"/>
                        <mxPoint x="390" y="450" as="targetPoint"/>
                    </mxGeometry>
                </mxCell>
                <mxCell id="Vd5r9ZvnlhtOwNtqajtM-29" style="edgeStyle=orthogonalEdgeStyle;rounded=0;orthogonalLoop=1;jettySize=auto;html=1;entryX=0;entryY=0.5;entryDx=0;entryDy=0;fillColor=#60a917;strokeColor=#2D7600;fontColor=#000000;" parent="WIyWlLk6GJQsqaUBKTNV-1" source="Vd5r9ZvnlhtOwNtqajtM-23" target="Vd5r9ZvnlhtOwNtqajtM-33" edge="1">
                    <mxGeometry relative="1" as="geometry">
                        <mxPoint x="180" y="620" as="targetPoint"/>
                        <Array as="points">
                            <mxPoint x="190" y="490"/>
                            <mxPoint x="190" y="780"/>
                        </Array>
                    </mxGeometry>
                </mxCell>
                <mxCell id="Vd5r9ZvnlhtOwNtqajtM-30" style="edgeStyle=orthogonalEdgeStyle;rounded=0;orthogonalLoop=1;jettySize=auto;html=1;fillColor=#f8cecc;strokeColor=#b85450;fontColor=#000000;" parent="WIyWlLk6GJQsqaUBKTNV-1" source="Vd5r9ZvnlhtOwNtqajtM-23" edge="1">
                    <mxGeometry relative="1" as="geometry">
                        <mxPoint x="550" y="490" as="targetPoint"/>
                    </mxGeometry>
                </mxCell>
                <mxCell id="Vd5r9ZvnlhtOwNtqajtM-23" value="compareHash()" style="rhombus;whiteSpace=wrap;html=1;shadow=0;fontFamily=Helvetica;fontSize=12;align=center;strokeWidth=1;spacing=6;spacingTop=-4;fillColor=#dae8fc;strokeColor=#6c8ebf;fontColor=#000000;" parent="WIyWlLk6GJQsqaUBKTNV-1" vertex="1">
                    <mxGeometry x="340" y="450" width="100" height="80" as="geometry"/>
                </mxCell>
                <mxCell id="Vd5r9ZvnlhtOwNtqajtM-36" style="edgeStyle=orthogonalEdgeStyle;rounded=0;orthogonalLoop=1;jettySize=auto;html=1;entryX=1;entryY=0.5;entryDx=0;entryDy=0;fillColor=#60a917;strokeColor=#2D7600;fontColor=#000000;" parent="WIyWlLk6GJQsqaUBKTNV-1" source="Vd5r9ZvnlhtOwNtqajtM-32" target="Vd5r9ZvnlhtOwNtqajtM-33" edge="1">
                    <mxGeometry relative="1" as="geometry">
                        <mxPoint x="460" y="780" as="targetPoint"/>
                        <Array as="points">
                            <mxPoint x="600" y="780"/>
                        </Array>
                    </mxGeometry>
                </mxCell>
                <mxCell id="Vd5r9ZvnlhtOwNtqajtM-37" style="edgeStyle=orthogonalEdgeStyle;rounded=0;orthogonalLoop=1;jettySize=auto;html=1;fillColor=#f8cecc;strokeColor=#b85450;fontColor=#000000;" parent="WIyWlLk6GJQsqaUBKTNV-1" source="Vd5r9ZvnlhtOwNtqajtM-32" edge="1">
                    <mxGeometry relative="1" as="geometry">
                        <mxPoint x="720" y="620" as="targetPoint"/>
                    </mxGeometry>
                </mxCell>
                <mxCell id="Vd5r9ZvnlhtOwNtqajtM-32" value="Upload Downloaded Code" style="rhombus;whiteSpace=wrap;html=1;shadow=0;fontFamily=Helvetica;fontSize=12;align=center;strokeWidth=1;spacing=6;spacingTop=-4;fillColor=#dae8fc;strokeColor=#6c8ebf;fontColor=#000000;" parent="WIyWlLk6GJQsqaUBKTNV-1" vertex="1">
                    <mxGeometry x="550" y="450" width="100" height="80" as="geometry"/>
                </mxCell>
                <mxCell id="Vd5r9ZvnlhtOwNtqajtM-33" value="Load Interactive Components" style="rounded=1;whiteSpace=wrap;html=1;fontSize=12;glass=0;strokeWidth=1;shadow=0;fillColor=#ffe6cc;strokeColor=#d79b00;fontColor=#000000;" parent="WIyWlLk6GJQsqaUBKTNV-1" vertex="1">
                    <mxGeometry x="330" y="760" width="120" height="40" as="geometry"/>
                </mxCell>
                <mxCell id="Vd5r9ZvnlhtOwNtqajtM-38" value="Alert User" style="rounded=1;whiteSpace=wrap;html=1;fontSize=12;glass=0;strokeWidth=1;shadow=0;fillColor=#ffe6cc;strokeColor=#d79b00;fontColor=#000000;" parent="WIyWlLk6GJQsqaUBKTNV-1" vertex="1">
                    <mxGeometry x="660" y="620" width="120" height="40" as="geometry"/>
                </mxCell>
                <mxCell id="Vd5r9ZvnlhtOwNtqajtM-42" value="" style="rounded=0;html=1;jettySize=auto;orthogonalLoop=1;fontSize=11;endArrow=block;endFill=0;endSize=8;strokeWidth=1;shadow=0;labelBackgroundColor=none;edgeStyle=orthogonalEdgeStyle;exitX=1;exitY=0.5;exitDx=0;exitDy=0;fillColor=#ffe6cc;strokeColor=#d79b00;entryX=0.5;entryY=0;entryDx=0;entryDy=0;fontColor=#000000;" parent="WIyWlLk6GJQsqaUBKTNV-1" source="Vd5r9ZvnlhtOwNtqajtM-38" target="Vd5r9ZvnlhtOwNtqajtM-32" edge="1">
                    <mxGeometry relative="1" as="geometry">
                        <mxPoint x="400" y="400" as="sourcePoint"/>
                        <mxPoint x="400" y="460" as="targetPoint"/>
                    </mxGeometry>
                </mxCell>
                <mxCell id="Vd5r9ZvnlhtOwNtqajtM-43" value="True" style="text;html=1;strokeColor=none;fillColor=none;align=center;verticalAlign=middle;whiteSpace=wrap;rounded=0;fontColor=#000000;" parent="WIyWlLk6GJQsqaUBKTNV-1" vertex="1">
                    <mxGeometry x="240" y="450" width="60" height="30" as="geometry"/>
                </mxCell>
                <mxCell id="Vd5r9ZvnlhtOwNtqajtM-44" value="False" style="text;html=1;strokeColor=none;fillColor=none;align=center;verticalAlign=middle;whiteSpace=wrap;rounded=0;fontColor=#000000;" parent="WIyWlLk6GJQsqaUBKTNV-1" vertex="1">
                    <mxGeometry x="460" y="450" width="60" height="30" as="geometry"/>
                </mxCell>
                <mxCell id="Vd5r9ZvnlhtOwNtqajtM-45" value="True" style="text;html=1;strokeColor=none;fillColor=none;align=center;verticalAlign=middle;whiteSpace=wrap;rounded=0;fontColor=#000000;" parent="WIyWlLk6GJQsqaUBKTNV-1" vertex="1">
                    <mxGeometry x="530" y="600" width="60" height="30" as="geometry"/>
                </mxCell>
                <mxCell id="Vd5r9ZvnlhtOwNtqajtM-46" value="False" style="text;html=1;strokeColor=none;fillColor=none;align=center;verticalAlign=middle;whiteSpace=wrap;rounded=0;fontColor=#000000;" parent="WIyWlLk6GJQsqaUBKTNV-1" vertex="1">
                    <mxGeometry x="650" y="500" width="60" height="30" as="geometry"/>
                </mxCell>
            </root>
        </mxGraphModel>
    </diagram>
</mxfile>